<svg width="70" height="70" viewBox="0 0 70 70" fill="none" xmlns="http://www.w3.org/2000/svg">
<path d="M69.9979 28.9023C69.9701 28.2626 69.6136 27.0767 67.5403 26.3221L12.2631 6.22269C9.42963 5.19169 6.2851 6.65759 5.25369 9.49122L3.7573 13.6022C3.7573 13.6022 3.75717 13.6026 3.75703 13.6029L0.390605 22.8523C-0.640664 25.6861 0.825508 28.8304 3.65955 29.8619L19.7699 35.7188C19.4638 37.5809 19.9745 39.4207 21.086 40.8283L17.6541 50.2568C17.4962 50.6907 17.0795 50.9824 16.6172 50.9824H6.5625V47.7011C6.5625 45.8919 5.09059 44.4199 3.28125 44.4199H1.09375C0.489727 44.4199 0 44.9096 0 45.5136V63.0136C0 63.6176 0.489727 64.1074 1.09375 64.1074H3.28125C5.09059 64.1074 6.5625 62.6353 6.5625 60.8261V57.5449H16.6172C19.8285 57.5449 22.7233 55.5176 23.8208 52.5005L27.1805 43.2701C29.1032 43.0002 30.8504 41.8776 31.8876 40.1243L50.7142 46.9687C51.3295 47.1926 51.9593 47.2989 52.5792 47.2989C54.4592 47.2987 56.2455 46.3215 57.2459 44.6903L59.4063 45.4766C59.6504 45.5653 59.9033 45.6096 60.1556 45.6096C60.4704 45.6096 60.7842 45.5407 61.078 45.4037C61.6072 45.1569 62.0087 44.7187 62.2083 44.1702L65.202 35.9449C65.5661 34.9446 65.1506 33.8482 64.2683 33.3216L67.7746 31.6867C69.7743 30.7543 70.0258 29.542 69.9979 28.9023ZM4.375 60.8261C4.375 61.4292 3.88432 61.9199 3.28125 61.9199H2.1875V46.6074H3.28125C3.88432 46.6074 4.375 47.098 4.375 47.7011V60.8261ZM21.7652 51.7525C20.9809 53.9087 18.912 55.3574 16.6172 55.3574H6.5625V53.1699H16.6172C17.9956 53.1699 19.2382 52.2999 19.7096 51.0051L22.8494 42.3789C23.2096 42.5953 23.5956 42.7811 24.0055 42.9303C24.2964 43.0363 24.59 43.1201 24.884 43.1836L21.7652 51.7525ZM26.4009 41.1411C26.3756 41.1409 26.3505 41.1409 26.3253 41.1424C25.8044 41.1494 25.273 41.0638 24.7536 40.8747C24.1456 40.6534 23.6154 40.3128 23.1811 39.8886C23.1413 39.8402 23.0971 39.7953 23.0489 39.7542C22.2343 38.8866 21.7982 37.7087 21.8807 36.4862L29.7773 39.357C28.9784 40.4543 27.7277 41.1002 26.4009 41.1411ZM63.1467 35.1968L60.1549 43.4211L58.0978 42.6725L60.9355 34.8758L61.5165 34.605L63.1467 35.1968ZM66.8504 29.7041L61.0034 32.4306C61.0027 32.4309 61.0021 32.4311 61.0016 32.4314L59.6013 33.0844C59.6008 33.0846 59.6003 33.0848 59.5998 33.0851L57.9581 33.8505C56.0314 34.7489 52.7159 34.8936 50.7177 34.1664L19.0798 22.6709C18.5123 22.4649 17.8846 22.7577 17.6783 23.3254C17.472 23.8932 17.765 24.5206 18.3328 24.727L49.9702 36.2222C51.071 36.6229 52.428 36.818 53.8126 36.818C55.3265 36.818 56.8723 36.5835 58.1515 36.1295L55.6685 42.9519C55.0497 44.6521 53.163 45.5318 51.4624 44.9129L4.40727 27.8062C2.70703 27.1874 1.82738 25.3008 2.44617 23.6006L4.31758 18.4589C4.9417 19.4184 5.86988 20.191 7.02598 20.6118L8.0541 20.9859C8.62121 21.1926 9.2493 20.8997 9.45588 20.3321C9.66246 19.7645 9.36975 19.1369 8.80209 18.9303L7.7741 18.5562C6.07414 17.9374 5.19436 16.0513 5.81273 14.3512L6.18707 13.3226C6.18707 13.3226 6.18721 13.3224 6.18721 13.3222L7.30926 10.2393C7.92818 8.53911 9.81476 7.65906 11.5153 8.27825L66.7924 28.3778C67.4946 28.6334 67.7544 28.8997 67.8072 28.9978C67.7631 29.1004 67.5277 29.3882 66.8504 29.7041Z" fill="white"/>
<path d="M14.9688 21.1749L12.913 20.4265C12.3455 20.2196 11.7178 20.5126 11.5111 21.0801C11.3045 21.6476 11.5971 22.2753 12.1647 22.482L14.2206 23.2304C14.344 23.2754 14.4704 23.2966 14.5946 23.2966C15.0414 23.2966 15.4608 23.0207 15.6225 22.5766C15.8292 22.0093 15.5365 21.3816 14.9688 21.1749Z" fill="white"/>
</svg>
