<svg width="74" height="74" viewBox="0 0 74 74" fill="none" xmlns="http://www.w3.org/2000/svg">
<path d="M16.436 54.3322H15.0254C13.113 54.3322 11.5567 55.8885 11.5567 57.801V58.9572C11.5567 59.5966 12.0735 60.1135 12.7129 60.1135H35.831C36.4704 60.1135 36.9872 59.5966 36.9872 58.9572V57.801C36.9872 55.8885 35.4309 54.3322 33.5185 54.3322H32.1079L31.5309 52.0243H45.0717C46.9842 52.0243 48.5405 50.468 48.5405 48.5556V17.3553C48.5405 15.4429 46.9842 13.8866 45.0717 13.8866H3.47217C1.55973 13.8866 0.00341797 15.4429 0.00341797 17.3553V48.5556C0.00341797 50.468 1.55973 52.0243 3.47217 52.0243H17.013L16.436 54.3322ZM15.0254 56.6447H33.5185C34.1567 56.6447 34.6747 57.1627 34.6747 57.801H13.8692C13.8692 57.1627 14.3872 56.6447 15.0254 56.6447ZM29.726 54.3322H18.8179L19.3949 52.0243H29.149L29.726 54.3322ZM3.47217 16.1991H45.0729C45.7111 16.1991 46.2291 16.7171 46.2291 17.3553V45.0868H2.31592V17.3553C2.31592 16.7171 2.83392 16.1991 3.47217 16.1991ZM2.31592 48.5556V47.3993H24.2951C23.6568 47.3993 23.1458 47.9162 23.1458 48.5556C23.1458 49.195 23.6684 49.7118 24.3078 49.7118C24.946 49.7118 25.464 49.195 25.464 48.5556C25.464 47.9162 24.946 47.3993 24.3078 47.3993H46.2291V48.5556C46.2291 49.1938 45.7111 49.7118 45.0729 49.7118H24.3066H3.47217C2.83392 49.7118 2.31592 49.1938 2.31592 48.5556Z" fill="white"/>
<path d="M70.5278 13.8866H54.3391C52.4267 13.8866 50.8704 15.4429 50.8704 17.3553V56.6447C50.8704 58.5572 52.4267 60.1135 54.3391 60.1135H70.5278C72.4402 60.1135 73.9965 58.5572 73.9965 56.6447V17.3553C73.9965 15.4418 72.4402 13.8866 70.5278 13.8866ZM53.1829 20.8195H71.684V21.9734H53.1829V20.8195ZM54.3391 16.1991H70.5278C71.166 16.1991 71.684 16.7171 71.684 17.3553V18.507H53.1829V17.3553C53.1829 16.7171 53.7009 16.1991 54.3391 16.1991ZM70.5278 57.801H54.3391C53.7009 57.801 53.1829 57.283 53.1829 56.6447V24.2859H71.684V56.6447C71.684 57.283 71.166 57.801 70.5278 57.801Z" fill="white"/>
<path d="M62.4341 38.1609C64.3465 38.1609 65.9028 36.6046 65.9028 34.6921C65.9028 32.7797 64.3465 31.2234 62.4341 31.2234C60.5216 31.2234 58.9653 32.7797 58.9653 34.6921C58.9653 36.6046 60.5216 38.1609 62.4341 38.1609ZM62.4341 33.5359C63.0723 33.5359 63.5903 34.0539 63.5903 34.6921C63.5903 35.3304 63.0723 35.8484 62.4341 35.8484C61.7958 35.8484 61.2778 35.3304 61.2778 34.6921C61.2778 34.0539 61.7958 33.5359 62.4341 33.5359Z" fill="white"/>
<path d="M67.0591 45.1006H57.8091C57.1697 45.1006 56.6528 45.6174 56.6528 46.2568C56.6528 46.8962 57.1697 47.4131 57.8091 47.4131H67.0591C67.6985 47.4131 68.2153 46.8962 68.2153 46.2568C68.2153 45.6174 67.6985 45.1006 67.0591 45.1006Z" fill="white"/>
<path d="M67.0591 48.5693H57.8091C57.1697 48.5693 56.6528 49.0862 56.6528 49.7256C56.6528 50.365 57.1697 50.8818 57.8091 50.8818H67.0591C67.6985 50.8818 68.2153 50.365 68.2153 49.7256C68.2153 49.0862 67.6985 48.5693 67.0591 48.5693Z" fill="white"/>
<path d="M67.0591 52.0381H57.8091C57.1697 52.0381 56.6528 52.5549 56.6528 53.1943C56.6528 53.8337 57.1697 54.3506 57.8091 54.3506H67.0591C67.6985 54.3506 68.2153 53.8337 68.2153 53.1943C68.2153 52.5549 67.6985 52.0381 67.0591 52.0381Z" fill="white"/>
</svg>
