<svg width="73" height="73" viewBox="0 0 73 73" fill="none" xmlns="http://www.w3.org/2000/svg">
<path d="M36.5001 0C22.9651 0 11.9536 11.0115 11.9536 24.5464C11.9536 33.0986 16.4373 41.051 23.7092 45.4992L24.4942 51.2927C24.8658 54.0345 27.1366 56.1021 29.7766 56.1021H43.2235C45.8636 56.1021 48.1344 54.0345 48.5058 51.2927L49.2907 45.4992C56.5627 41.051 61.0464 33.0984 61.0464 24.5464C61.0465 11.0115 50.0351 0 36.5001 0ZM46.9493 43.047C46.5003 43.3012 46.196 43.7505 46.1267 44.2618L45.2341 50.8493C45.0861 51.9433 44.2027 52.8004 43.2235 52.8004H29.7766C28.7974 52.8004 27.9142 51.9433 27.766 50.8491L26.8734 44.2616C26.8041 43.7503 26.4999 43.3008 26.0509 43.0468C19.392 39.2771 15.2553 32.188 15.2553 24.5463C15.2552 12.8319 24.7855 3.30154 36.5001 3.30154C48.2146 3.30154 57.745 12.8319 57.745 24.5464C57.745 32.1882 53.6083 39.2773 46.9493 43.047Z" fill="white"/>
<path d="M45.1457 57.9734H27.8544C26.9427 57.9734 26.2036 58.7124 26.2036 59.6242C26.2036 60.5359 26.9427 61.2749 27.8544 61.2749H45.1457C46.0574 61.2749 46.7965 60.5359 46.7965 59.6242C46.7965 58.7124 46.0574 57.9734 45.1457 57.9734Z" fill="white"/>
<path d="M43.0523 63.1462H29.9476C29.0359 63.1462 28.2969 63.8853 28.2969 64.797C28.2969 69.3201 31.9768 73 36.4999 73C41.023 73 44.7029 69.3201 44.7029 64.797C44.703 63.8853 43.964 63.1462 43.0523 63.1462ZM36.5 69.6985C34.3763 69.6985 32.5636 68.3407 31.8845 66.4478H41.1156C40.4365 68.3407 38.6238 69.6985 36.5 69.6985Z" fill="white"/>
<path d="M46.9623 25.5121C46.9623 25.4814 46.9621 25.4507 46.9603 25.4201C46.959 25.3972 46.9563 25.3742 46.9542 25.3513C46.9512 25.3218 46.9482 25.2922 46.9438 25.263C46.9398 25.2377 46.9345 25.2128 46.9294 25.1877C46.924 25.1615 46.9189 25.1351 46.9122 25.1091C46.9053 25.0816 46.8967 25.0543 46.8883 25.0271C46.8811 25.004 46.8741 24.9809 46.866 24.9583C46.856 24.9304 46.8446 24.9031 46.833 24.8755C46.8236 24.8534 46.8145 24.8313 46.8043 24.8097C46.7922 24.7843 46.7789 24.7592 46.7653 24.7342C46.7526 24.7108 46.7399 24.6874 46.726 24.6646C46.713 24.643 46.699 24.6217 46.6848 24.6005C46.6678 24.5749 46.6503 24.5499 46.6318 24.5253C46.6253 24.5167 46.6199 24.5074 46.6131 24.4988C46.6054 24.4889 46.5968 24.4805 46.5889 24.4708C46.5686 24.446 46.5476 24.4218 46.5258 24.3981C46.51 24.381 46.4941 24.3641 46.4776 24.3478C46.4561 24.3263 46.4339 24.3055 46.4111 24.2852C46.3926 24.2687 46.3741 24.2525 46.355 24.237C46.333 24.2192 46.3104 24.202 46.2874 24.1852C46.2661 24.1695 46.2447 24.1542 46.2227 24.1398C46.2006 24.1251 46.1778 24.1112 46.1549 24.0977C46.1306 24.0833 46.1063 24.0695 46.0816 24.0564C46.0595 24.0449 46.0368 24.0338 46.0141 24.0233C45.987 24.0105 45.9596 23.9985 45.9319 23.9873C45.9099 23.9784 45.8876 23.9701 45.865 23.962C45.8355 23.9514 45.8056 23.9419 45.7755 23.9331C45.7631 23.9295 45.7516 23.9247 45.739 23.9214C45.7282 23.9184 45.7173 23.9171 45.7064 23.9145C45.6775 23.9074 45.6484 23.9013 45.6192 23.8958C45.5931 23.8909 45.5672 23.8862 45.5413 23.8824C45.516 23.879 45.4908 23.8765 45.4654 23.874C45.4358 23.8712 45.4064 23.8687 45.377 23.8674C45.3544 23.8666 45.332 23.8668 45.3094 23.8668C45.2782 23.8668 45.2471 23.8669 45.2161 23.8687C45.1936 23.8701 45.1714 23.8725 45.1489 23.8747C45.1187 23.8777 45.0886 23.8808 45.0588 23.8854C45.0343 23.8892 45.0101 23.8943 44.9858 23.8993C44.9586 23.9047 44.9315 23.9102 44.9048 23.9169C44.8782 23.9237 44.8519 23.932 44.8255 23.9401C44.8014 23.9475 44.7773 23.9547 44.7537 23.9633C44.7268 23.9731 44.7002 23.9841 44.6736 23.9954C44.6507 24.0051 44.6278 24.0147 44.6051 24.0252C44.5804 24.037 44.5559 24.05 44.5317 24.0632C44.5076 24.0762 44.4836 24.0893 44.4602 24.1035C44.4391 24.1164 44.4183 24.1299 44.3975 24.1438C44.3716 24.1609 44.3461 24.1788 44.3212 24.1974C44.3126 24.2039 44.3035 24.2091 44.2951 24.2157L40.9058 26.8682L37.5162 24.2157C36.9187 23.7481 36.0791 23.7481 35.4815 24.2157L32.0928 26.868L28.7038 24.2157C28.6952 24.209 28.6861 24.2037 28.6774 24.1971C28.6528 24.1786 28.6277 24.1611 28.6021 24.1441C28.581 24.1299 28.5598 24.116 28.5382 24.103C28.5153 24.0891 28.4918 24.0764 28.4684 24.0637C28.4434 24.0502 28.4185 24.037 28.3931 24.0249C28.3713 24.0145 28.3492 24.0053 28.3269 23.996C28.2997 23.9845 28.2723 23.9731 28.2445 23.963C28.2217 23.9547 28.1985 23.9478 28.1754 23.9406C28.1481 23.9321 28.121 23.9236 28.0936 23.9166C28.0676 23.91 28.0413 23.9047 28.0149 23.8994C27.99 23.8943 27.965 23.8891 27.94 23.8853C27.9107 23.8806 27.881 23.8778 27.8515 23.8749C27.8285 23.8725 27.8058 23.8699 27.7828 23.8687C27.7523 23.8669 27.7217 23.8668 27.6909 23.8668C27.6677 23.8668 27.6448 23.8666 27.6219 23.8674C27.5928 23.8686 27.5637 23.8711 27.5345 23.8739C27.5088 23.8762 27.4832 23.8788 27.4578 23.8823C27.4319 23.8859 27.4061 23.8905 27.3802 23.8955C27.351 23.9009 27.3217 23.907 27.2929 23.9141C27.282 23.9168 27.2711 23.9183 27.2602 23.9211C27.2476 23.9244 27.2361 23.9292 27.2237 23.9328C27.1936 23.9415 27.1639 23.9511 27.1344 23.9615C27.1118 23.9696 27.0893 23.9779 27.0672 23.9869C27.0396 23.998 27.0124 24.0101 26.9853 24.0228C26.9625 24.0335 26.9399 24.0444 26.9178 24.0561C26.893 24.0691 26.8686 24.083 26.8445 24.0974C26.8216 24.1109 26.7989 24.1248 26.7768 24.1395C26.7549 24.154 26.7332 24.1693 26.712 24.185C26.6892 24.2017 26.6667 24.2187 26.6449 24.2365C26.6256 24.2522 26.6068 24.2687 26.5881 24.2854C26.5657 24.3055 26.5439 24.3258 26.5226 24.3471C26.5059 24.3638 26.4896 24.381 26.4734 24.3985C26.4521 24.4218 26.4315 24.4454 26.4117 24.4698C26.4036 24.4797 26.3947 24.4884 26.3867 24.4985C26.3798 24.5073 26.3744 24.5167 26.3676 24.5256C26.3496 24.5497 26.3324 24.5743 26.3158 24.5992C26.3012 24.6208 26.287 24.6426 26.2737 24.6647C26.2601 24.687 26.2478 24.71 26.2354 24.7329C26.2217 24.7583 26.208 24.7839 26.1958 24.8098C26.1857 24.831 26.1768 24.8526 26.1675 24.8742C26.1558 24.9021 26.1441 24.9299 26.1339 24.9581C26.1258 24.9804 26.119 25.0032 26.1119 25.0258C26.1033 25.0533 26.0947 25.0809 26.0876 25.109C26.081 25.1346 26.0759 25.1606 26.0706 25.1866C26.0655 25.2118 26.0601 25.2371 26.0563 25.2625C26.0518 25.2915 26.0488 25.3209 26.0459 25.3503C26.0436 25.3734 26.0409 25.3964 26.0396 25.4195C26.0378 25.4499 26.0376 25.4806 26.0376 25.5113C26.0376 25.5344 26.0374 25.5573 26.0383 25.5803C26.0394 25.6093 26.0421 25.6385 26.0447 25.6678C26.047 25.6933 26.0495 25.7188 26.0531 25.7443C26.0568 25.7703 26.0614 25.7962 26.0663 25.8221C26.0718 25.8513 26.0779 25.8804 26.085 25.9093C26.0876 25.9202 26.0891 25.9311 26.0919 25.9419L32.4452 49.7039C32.6425 50.442 33.3097 50.9286 34.0389 50.9286C34.1799 50.9286 34.3236 50.9105 34.4663 50.8722C35.347 50.6366 35.8701 49.7318 35.6347 48.851L30.5564 29.8574L31.0758 30.2638C31.3745 30.4977 31.7338 30.6146 32.0931 30.6146C32.4525 30.6146 32.8117 30.4977 33.1107 30.2638L36.4994 27.6115L39.8889 30.264C40.4865 30.7316 41.3259 30.7316 41.9236 30.264L42.4435 29.8572L37.365 48.8511C37.1295 49.7318 37.6526 50.6368 38.5334 50.8724C38.6762 50.9105 38.8197 50.9288 38.9608 50.9288C39.69 50.9288 40.3572 50.442 40.5545 49.7041L46.9078 25.9421C46.9108 25.9314 46.9121 25.9205 46.9147 25.9096C46.9218 25.8804 46.9279 25.8512 46.9335 25.8218C46.9385 25.796 46.9431 25.7703 46.9468 25.7445C46.9504 25.7189 46.9529 25.6933 46.9552 25.6676C46.958 25.6384 46.9605 25.6093 46.9616 25.5803C46.9626 25.558 46.9624 25.535 46.9623 25.5121Z" fill="white"/>
</svg>
